<?xml version="1.0" standalone="no"?>
<!DOCTYPE svg PUBLIC "-//W3C//DTD SVG 20010904//EN"
 "http://www.w3.org/TR/2001/REC-SVG-20010904/DTD/svg10.dtd">
<svg version="1.0" xmlns="http://www.w3.org/2000/svg"
 width="186.000000pt" height="349.000000pt" viewBox="0 0 186.000000 349.000000"
 preserveAspectRatio="xMidYMid meet">

<g transform="translate(0.000000,349.000000) scale(0.100000,-0.100000)"
fill="#000000" stroke="none">
<path d="M722 3445 c-30 -8 -86 -31 -125 -50 -42 -21 -79 -33 -90 -29 -13 4
-34 -8 -71 -43 -29 -26 -73 -64 -97 -83 -54 -42 -216 -220 -247 -271 -28 -47
-29 -129 -2 -201 24 -66 76 -118 192 -192 92 -59 123 -92 157 -171 37 -85 70
-105 106 -65 15 17 18 36 17 108 -1 48 -9 119 -17 157 -36 154 -52 246 -44
251 4 2 12 -12 17 -33 5 -21 15 -60 22 -88 7 -27 12 -57 12 -65 -1 -16 6 -46
37 -178 l20 -83 -24 -47 c-13 -26 -32 -76 -41 -112 -9 -35 -36 -101 -59 -145
-55 -103 -82 -190 -94 -313 -6 -54 -18 -127 -27 -162 -12 -47 -17 -114 -18
-247 0 -101 -2 -183 -3 -183 -1 0 -22 9 -48 20 -76 33 -166 52 -210 46 -108
-17 -80 -43 210 -192 50 -26 93 -52 97 -58 17 -25 6 -57 -38 -108 -85 -99 -91
-125 -56 -281 24 -109 40 -136 107 -178 25 -16 45 -30 45 -31 0 -2 -7 -39 -15
-83 -11 -59 -31 -111 -75 -198 -33 -64 -60 -122 -60 -127 0 -6 49 -10 124 -10
l124 0 6 67 c18 194 24 227 47 245 16 14 25 16 35 7 18 -15 49 -115 71 -229
l17 -90 124 0 c141 0 135 -5 86 90 -24 46 -74 201 -74 230 0 27 17 41 60 51
24 5 59 23 79 38 20 16 74 40 121 55 47 14 107 39 134 54 l50 29 41 -28 c55
-37 123 -112 141 -154 18 -44 18 -81 -1 -178 -9 -49 -13 -99 -9 -133 l7 -54
94 0 c80 0 94 2 99 18 3 9 16 37 29 62 20 38 30 46 74 59 31 9 50 21 50 30 7
148 -1 170 -96 269 -52 54 -53 56 -53 116 0 34 7 106 16 161 10 63 15 161 15
266 -1 151 1 172 24 238 13 39 25 93 26 119 1 26 6 53 12 60 16 20 2 230 -19
291 -21 60 -38 74 -47 39 -12 -45 -24 -2 -30 102 -4 99 -4 103 9 65 14 -39 14
-39 9 -6 -3 19 -13 44 -23 55 -9 10 -11 16 -4 12 17 -10 16 19 -2 33 -10 9
-35 4 -107 -22 -52 -18 -140 -47 -196 -63 l-103 -29 0 -33 c0 -20 -4 -31 -10
-27 -5 3 -10 2 -10 -4 0 -5 6 -11 13 -14 6 -2 -5 -8 -26 -12 -45 -9 -60 0 -23
14 39 15 32 19 -21 11 -57 -9 -81 -3 -88 21 -8 25 2 39 28 39 12 0 31 7 41 15
11 8 28 15 37 15 10 0 22 6 26 13 4 7 38 35 75 61 72 51 122 116 138 180 23
90 30 104 24 46 -12 -122 -56 -221 -96 -218 -23 2 -118 -58 -118 -74 0 -12 36
-10 93 7 29 9 68 20 87 26 19 6 44 14 55 19 11 4 41 15 68 25 52 19 53 19 34
92 -9 35 -10 50 -3 47 6 -3 4 0 -4 8 -8 7 -28 38 -43 68 -16 30 -40 75 -53
100 -25 44 -25 49 -19 180 4 78 3 146 -3 160 -6 17 -5 37 4 62 7 20 15 74 19
120 8 111 14 136 26 117 12 -19 11 -199 -1 -274 -5 -33 -6 -61 -2 -62 4 -2 5
-26 4 -53 -2 -28 1 -57 7 -64 6 -7 9 -20 6 -28 -4 -9 2 -23 11 -33 21 -21 33
-3 13 21 -7 8 -12 30 -11 49 1 19 -2 35 -7 35 -12 0 -4 155 14 246 10 51 13
113 10 179 l-4 100 10 -90 c7 -63 7 -110 -1 -155 -7 -45 -7 -76 0 -100 12 -43
12 -49 0 -30 -8 12 -10 11 -10 -6 0 -12 8 -28 18 -35 16 -13 16 -13 2 5 -14
18 -13 19 4 13 17 -7 18 -4 13 28 -3 20 -2 33 3 30 4 -3 11 1 13 7 3 7 6 -11
6 -40 1 -61 17 -66 40 -14 10 21 22 32 36 32 25 0 71 46 114 115 24 38 30 56
25 80 -3 18 -1 51 6 74 14 54 1 97 -42 137 -17 16 -28 24 -24 17 3 -6 1 -15
-5 -19 -8 -4 -9 -3 -5 4 11 19 -167 217 -186 206 -5 -3 -27 11 -49 31 -23 20
-45 33 -52 29 -7 -4 -9 -4 -5 1 12 13 -12 35 -37 35 -12 0 -49 11 -83 25 -34
14 -73 25 -87 25 -33 0 -33 -26 0 -34 14 -4 25 -11 25 -16 0 -5 16 -17 35 -26
19 -9 35 -23 35 -30 0 -8 4 -14 8 -14 5 0 17 -18 27 -40 10 -22 21 -38 25 -35
11 7 71 -114 76 -153 3 -19 -2 -65 -10 -101 -9 -36 -20 -92 -26 -123 -6 -32
-19 -67 -29 -79 l-18 -22 -22 34 -23 34 28 -30 c21 -23 26 -26 22 -10 -3 11
-7 27 -9 35 -2 8 -8 18 -12 21 -4 3 -3 16 2 30 7 17 10 19 10 7 1 -10 4 -18 9
-18 12 0 54 100 48 116 -3 8 -1 25 4 39 7 18 5 36 -6 65 -9 22 -20 40 -24 40
-4 0 -11 11 -14 24 -3 14 -20 33 -36 43 -17 9 -30 22 -30 28 0 7 -11 22 -25
35 -13 12 -22 27 -18 33 3 6 1 7 -5 4 -14 -9 -43 3 -36 14 3 5 1 9 -5 9 -6 0
-7 7 -4 17 4 11 3 14 -5 9 -7 -4 -12 -1 -12 9 0 8 -10 20 -22 26 -13 5 -43 21
-68 34 -49 26 -93 31 -135 15 -14 -5 -24 -6 -21 -2 9 15 -216 12 -272 -3z
m876 -237 c16 -51 32 -106 35 -123 l7 -30 -14 30 c-8 17 -24 64 -36 105 -12
41 -24 83 -27 93 -3 9 -3 17 0 17 3 0 19 -42 35 -92z m-58 -37 c0 -32 -6 -24
-14 19 -4 25 -3 31 4 20 5 -8 10 -26 10 -39z m7 -93 c-2 -13 -4 -3 -4 22 0 25
2 35 4 23 2 -13 2 -33 0 -45z m-197 22 c0 -5 -4 -10 -10 -10 -5 0 -10 5 -10
10 0 6 5 10 10 10 6 0 10 -4 10 -10z m450 -21 c0 -6 -4 -7 -10 -4 -5 3 -10 11
-10 16 0 6 5 7 10 4 6 -3 10 -11 10 -16z m-153 -61 c-3 -8 -6 -5 -6 6 -1 11 2
17 5 13 3 -3 4 -12 1 -19z m-420 -43 c68 -64 108 -95 122 -95 6 0 10 -10 10
-22 -1 -51 13 -177 28 -243 22 -100 33 -233 21 -280 -14 -63 -40 -105 -63
-105 -16 0 -17 2 -6 9 12 8 12 12 2 25 -8 9 -10 16 -5 16 5 0 1 7 -10 15 -11
8 -17 22 -14 33 3 11 1 26 -3 35 -6 10 -5 18 1 22 13 8 13 48 -1 62 -6 6 -19
9 -28 6 -12 -4 -13 -3 -2 5 9 7 10 11 2 17 -7 4 -9 16 -5 27 3 12 2 18 -3 15
-5 -4 -23 -2 -39 3 -16 4 -21 9 -11 9 23 1 65 29 77 52 15 26 2 47 -35 59 -19
6 -48 28 -66 48 -29 33 -30 36 -13 43 12 5 14 8 5 8 -12 1 -12 4 -3 13 7 7 12
18 12 26 0 20 -64 82 -76 74 -17 -11 -25 -42 -11 -42 7 0 3 -7 -7 -15 -11 -8
-39 -15 -62 -15 l-43 0 27 53 c15 28 32 58 39 65 7 8 10 19 6 25 -9 15 -10 66
0 60 4 -2 7 2 7 10 0 11 7 13 22 9 17 -4 20 -2 15 12 -5 13 -1 16 25 14 21 -2
47 -18 85 -53z m185 23 c-9 -9 -12 -7 -12 12 0 19 3 21 12 12 9 -9 9 -15 0
-24z m367 -20 c1 -5 -3 -8 -9 -8 -5 0 -10 12 -9 28 0 24 1 25 9 7 5 -11 9 -23
9 -27z m-346 7 c-3 -9 -8 -14 -10 -11 -3 3 -2 9 2 15 9 16 15 13 8 -4z m174
-7 c-3 -8 -6 -5 -6 6 -1 11 2 17 5 13 3 -3 4 -12 1 -19z m-258 -30 c5 -15 4
-26 -3 -30 -17 -11 -20 -10 -35 15 -14 22 -14 22 8 3 23 -21 27 -16 11 15 -8
13 -7 19 0 19 6 0 14 -10 19 -22z m11 -48 c0 -5 -4 -10 -10 -10 -5 0 -10 5
-10 10 0 6 5 10 10 10 6 0 10 -4 10 -10z m-205 -660 c-18 -20 -35 -26 -35 -12
0 4 10 12 23 18 32 16 32 16 12 -6z m45 10 c0 -5 -5 -10 -11 -10 -5 0 -7 5 -4
10 3 6 8 10 11 10 2 0 4 -4 4 -10z m-95 -20 c3 -6 -4 -10 -17 -10 -18 0 -20 2
-8 10 19 12 18 12 25 0z m-465 -96 c0 -8 11 -30 25 -48 14 -18 25 -37 25 -41
0 -5 -16 14 -35 41 -37 51 -42 64 -25 64 6 0 10 -7 10 -16z m691 -114 c-13
-11 -28 -20 -35 -20 -6 0 3 9 19 20 38 25 47 25 16 0z m-609 -51 c5 -3 10 -10
10 -15 0 -5 5 -19 11 -32 6 -12 7 -25 4 -28 -12 -13 -35 17 -41 54 -3 20 -8
48 -11 62 -4 19 -3 18 6 -5 7 -16 16 -33 21 -36z m227 -99 c14 0 71 -72 71
-89 0 -8 -21 7 -47 35 -27 27 -65 61 -85 74 -21 14 -38 29 -38 33 0 4 20 -6
44 -23 25 -16 49 -30 55 -30z m709 5 c-3 -3 -9 2 -12 12 -6 14 -5 15 5 6 7 -7
10 -15 7 -18z m-14 -20 c3 -8 1 -15 -4 -15 -6 0 -10 7 -10 15 0 8 2 15 4 15 2
0 6 -7 10 -15z m54 -157 c7 -7 12 -24 12 -40 0 -15 11 -53 25 -84 14 -31 25
-61 25 -66 0 -18 -29 20 -36 46 -3 14 -12 26 -18 26 -18 0 -35 21 -29 36 3 8
9 12 13 9 5 -3 8 4 7 15 -1 11 -7 20 -14 20 -7 0 -13 11 -13 25 0 27 9 32 28
13z"/>
<path d="M1841 2963 c0 -12 -4 -30 -7 -40 -5 -17 -5 -17 6 0 6 10 9 28 7 40
-4 22 -4 22 -6 0z"/>
<path d="M1600 2086 c0 -11 30 -66 36 -66 2 0 -3 15 -12 33 -19 36 -24 44 -24
33z"/>
<path d="M1711 1784 c0 -11 3 -14 6 -6 3 7 2 16 -1 19 -3 4 -6 -2 -5 -13z"/>
</g>
</svg>
