<?xml version="1.0" standalone="no"?>
<!DOCTYPE svg PUBLIC "-//W3C//DTD SVG 20010904//EN"
 "http://www.w3.org/TR/2001/REC-SVG-20010904/DTD/svg10.dtd">
<svg version="1.0" xmlns="http://www.w3.org/2000/svg"
 width="400.000000pt" height="295.000000pt" viewBox="0 0 400.000000 295.000000"
 preserveAspectRatio="xMidYMid meet">

<g transform="translate(0.000000,295.000000) scale(0.100000,-0.100000)"
fill="#000000" stroke="none">
<path d="M3140 2435 c38 -28 60 -32 60 -10 0 8 -16 19 -37 24 -56 16 -60 14
-23 -14z"/>
<path d="M2265 1620 c7 -31 -10 -44 -21 -15 -10 24 -38 17 -74 -19 -30 -30
-37 -32 -50 -21 -30 27 -200 -103 -200 -151 0 -19 -2 -20 -90 -28 -36 -3 -50
-11 -72 -37 -36 -43 -35 -70 4 -103 35 -29 53 -34 45 -12 -4 10 -1 13 7 10 16
-6 83 27 115 57 29 27 109 62 145 63 27 1 30 6 46 64 20 72 27 82 41 62 9 -14
7 -58 -6 -125 -4 -16 -3 -25 2 -20 10 12 83 13 101 2 6 -5 12 -12 12 -18 0
-12 -37 -12 -45 1 -6 10 -55 14 -55 4 0 -3 5 -14 10 -25 7 -11 7 -19 1 -19 -5
0 -12 6 -15 13 -3 6 -3 1 0 -12 4 -14 1 -27 -7 -32 -11 -8 -11 -11 4 -20 26
-15 20 -26 -12 -21 -21 3 -35 -2 -51 -18 -20 -20 -24 -21 -32 -6 -5 9 -16 16
-23 16 -21 0 -19 -9 8 -31 l22 -20 -25 12 c-24 12 -25 11 -8 -8 17 -19 17 -19
-18 -18 -24 2 -34 -2 -30 -10 2 -7 -4 -22 -15 -34 -11 -12 -17 -26 -14 -31 3
-6 -1 -7 -9 -4 -10 4 -16 1 -16 -7 0 -7 -7 -21 -17 -31 -10 -11 -12 -18 -4
-18 8 0 7 -7 -3 -22 -24 -38 -29 -68 -13 -68 8 0 20 -12 25 -27 6 -16 17 -37
26 -48 14 -18 15 -18 16 -2 0 31 17 18 29 -23 13 -45 65 -93 151 -140 90 -50
132 -67 181 -73 41 -6 48 -4 57 16 10 20 11 20 11 3 1 -19 1 -19 22 0 12 10
31 18 43 16 19 -2 19 -2 3 8 -9 6 -15 16 -11 21 3 5 2 9 -3 8 -4 -1 -15 -1
-23 0 -13 1 -13 2 0 11 12 8 10 10 -10 10 -18 0 -21 3 -11 9 9 6 10 11 2 15
-6 4 -9 12 -6 17 4 5 0 9 -8 9 -9 0 -14 -8 -12 -17 1 -10 0 -12 -2 -5 -3 6 -8
12 -13 12 -5 0 -11 10 -13 23 -3 16 -5 13 -6 -10 -1 -24 -5 -31 -16 -27 -11 5
-13 2 -8 -12 4 -12 3 -15 -5 -10 -7 4 -12 14 -12 23 0 9 -3 13 -7 10 -11 -12
-31 13 -26 33 6 22 -12 28 -20 8 -4 -9 -8 -9 -14 -3 -11 13 -63 16 -63 4 0
-12 -17 4 -52 51 -32 42 -44 116 -22 137 11 12 12 18 3 29 -15 18 -5 18 32 -2
23 -12 28 -18 20 -28 -6 -7 -14 -31 -17 -53 -5 -35 -1 -43 31 -76 22 -23 41
-34 48 -30 12 8 17 9 37 12 5 0 17 15 25 32 12 23 21 29 36 24 11 -4 19 -2 19
5 0 6 -4 8 -10 5 -13 -8 -12 -5 1 34 6 17 15 31 21 31 5 0 2 7 -7 16 -9 9 -14
22 -11 30 3 7 -1 17 -8 23 -6 5 -13 26 -14 46 -2 29 1 35 17 35 11 0 23 -4 26
-10 3 -5 16 -10 28 -10 17 1 15 4 -13 16 -19 9 -44 17 -55 18 -12 0 -21 9 -23
22 -3 19 1 21 30 18 18 -1 27 0 21 3 -9 3 -10 10 -3 23 6 11 9 34 8 52 -2 26
1 33 15 32 31 -3 17 11 -35 34 -48 21 -50 23 -32 37 26 20 41 19 54 -5 8 -15
17 -18 40 -13 30 6 31 5 46 -46 4 -11 8 -11 22 3 24 21 39 20 54 -3 9 -15 19
-18 40 -14 20 4 29 1 34 -11 3 -9 15 -16 26 -16 11 0 34 -8 50 -17 29 -17 31
-17 42 1 6 11 19 28 29 38 16 17 11 23 -18 19 -5 -1 -1 6 10 15 19 15 19 15 1
12 -14 -2 -22 4 -26 22 -4 14 -11 24 -17 23 -13 -3 -25 81 -12 85 12 5 12 32
-1 32 -5 0 -10 -4 -10 -10 0 -5 -9 -10 -20 -10 -14 0 -20 7 -20 21 0 18 2 19
15 9 8 -7 15 -8 15 -2 0 17 -27 34 -35 22 -10 -16 -22 -4 -28 30 -5 21 -11 28
-22 24 -8 -3 -12 -10 -9 -15 3 -5 1 -9 -3 -9 -14 0 -33 22 -33 38 0 23 -26 41
-54 38 -17 -2 -26 2 -26 11 0 8 -5 11 -11 7 -6 -3 -15 0 -20 7 -7 12 -10 12
-18 1 -6 -10 -10 -8 -16 10 -5 18 -8 19 -12 7 -2 -11 -11 -15 -24 -12 -11 3
-19 0 -19 -8 0 -8 -9 -4 -23 9 -32 30 -40 28 -32 -8z m295 -132 c0 -19 -2 -20
-10 -8 -13 19 -13 30 0 30 6 0 10 -10 10 -22z m10 -38 c0 -5 -5 -10 -11 -10
-5 0 -7 5 -4 10 3 6 8 10 11 10 2 0 4 -4 4 -10z m-356 -206 c5 -13 4 -14 -7
-6 -8 7 -17 9 -20 5 -4 -3 -7 -1 -7 5 0 18 27 14 34 -4z m121 -34 c3 -5 2 -10
-4 -10 -5 0 -13 5 -16 10 -3 6 -2 10 4 10 5 0 13 -4 16 -10z m-61 -76 c4 -10
1 -14 -6 -12 -15 5 -23 28 -10 28 5 0 13 -7 16 -16z m16 -484 c0 -5 -4 -10
-10 -10 -5 0 -10 5 -10 10 0 6 5 10 10 10 6 0 10 -4 10 -10z"/>
<path d="M2680 1380 c0 -5 7 -10 16 -10 8 0 12 5 9 10 -3 6 -10 10 -16 10 -5
0 -9 -4 -9 -10z"/>
<path d="M2130 1299 c0 -5 5 -7 10 -4 6 3 10 8 10 11 0 2 -4 4 -10 4 -5 0 -10
-5 -10 -11z"/>
<path d="M2403 1243 c11 -25 1 -46 -12 -24 -7 11 -10 11 -17 0 -4 -7 -3 -14 4
-17 7 -2 12 -13 12 -25 0 -16 3 -18 12 -9 7 7 18 12 26 12 16 0 14 -27 -13
-135 -48 -197 -53 -220 -43 -232 7 -9 7 -13 -1 -13 -8 0 -8 -4 1 -14 7 -8 17
-11 23 -8 5 3 5 7 -2 9 -11 4 2 103 15 113 4 3 8 23 9 44 2 22 4 41 6 42 2 2
22 -6 45 -18 41 -20 42 -21 26 -39 -11 -12 -21 -16 -27 -10 -11 11 -37 4 -37
-10 0 -5 8 -9 19 -9 16 0 17 -6 13 -48 -3 -33 1 -59 12 -80 14 -28 21 -32 49
-28 70 8 78 14 72 61 -4 38 -2 43 22 54 23 10 30 9 52 -7 26 -20 32 -49 16
-84 -5 -14 -2 -18 13 -18 22 0 31 15 42 73 5 28 5 36 -3 28 -21 -21 -36 -12
-35 20 1 20 -5 35 -15 41 -10 5 -17 15 -17 22 0 8 -11 17 -25 20 -14 4 -25 12
-25 19 0 6 -11 20 -25 29 -23 18 -24 18 -35 -17 -6 -19 -14 -35 -16 -35 -3 0
-27 9 -54 21 -43 18 -48 24 -46 51 1 16 9 33 16 38 8 5 12 12 8 15 -3 4 -2 21
3 38 6 18 12 52 15 77 l4 45 -49 15 -49 16 11 -23z"/>
<path d="M2350 1245 c0 -9 6 -12 15 -9 8 4 12 10 9 15 -8 14 -24 10 -24 -6z"/>
<path d="M2761 1233 c-16 -34 -6 -59 29 -71 34 -12 40 -8 40 32 0 38 -9 51
-36 58 -16 4 -25 -1 -33 -19z"/>
<path d="M1763 1214 c4 -4 1 -14 -6 -23 -11 -14 -10 -15 8 -1 11 8 21 15 23
16 2 1 -5 5 -15 8 -9 4 -14 4 -10 0z"/>
<path d="M1960 1180 c0 -5 5 -10 11 -10 5 0 7 5 4 10 -3 6 -8 10 -11 10 -2 0
-4 -4 -4 -10z"/>
<path d="M2360 1175 c0 -8 5 -15 10 -15 6 0 10 7 10 15 0 8 -4 15 -10 15 -5 0
-10 -7 -10 -15z"/>
<path d="M2840 1079 c0 -5 5 -7 10 -4 6 3 10 8 10 11 0 2 -4 4 -10 4 -5 0 -10
-5 -10 -11z"/>
<path d="M2856 1051 c-10 -16 5 -41 25 -41 16 0 17 3 7 25 -12 26 -23 31 -32
16z"/>
<path d="M2530 1046 c0 -2 7 -7 16 -10 8 -3 12 -2 9 4 -6 10 -25 14 -25 6z"/>
<path d="M1789 856 c10 -11 10 -20 0 -38 -8 -16 -14 -19 -17 -9 -3 10 -6 11
-12 1 -9 -15 -156 -19 -207 -6 -49 13 -43 -13 17 -73 60 -60 119 -81 226 -81
81 0 84 3 84 75 0 40 2 44 31 50 49 11 32 35 -41 57 -36 11 -66 24 -68 29 -2
5 -8 9 -14 9 -7 0 -6 -5 1 -14z"/>
<path d="M2670 730 c0 -5 5 -10 10 -10 6 0 10 5 10 10 0 6 -4 10 -10 10 -5 0
-10 -4 -10 -10z"/>
<path d="M2505 583 c-27 -19 -52 -37 -54 -39 -7 -7 30 -54 42 -54 8 0 33 -17
57 -37 42 -36 48 -38 128 -42 100 -4 100 3 1 55 -88 46 -122 84 -109 120 6 14
10 27 10 30 0 12 -30 -1 -75 -33z"/>
<path d="M2999 610 c-9 -5 -27 -42 -39 -82 -12 -40 -28 -90 -35 -110 -7 -21
-11 -38 -8 -38 8 0 107 51 117 60 4 4 -1 17 -12 28 -32 32 -37 77 -12 117 22
35 19 42 -11 25z"/>
<path d="M2900 600 c0 -5 7 -10 16 -10 8 0 12 5 9 10 -3 6 -10 10 -16 10 -5 0
-9 -4 -9 -10z"/>
<path d="M3125 509 c-16 -16 -25 -29 -19 -29 6 0 23 14 39 30 37 38 20 37 -20
-1z"/>
<path d="M1700 446 c0 -11 50 -26 160 -50 58 -13 115 -28 126 -34 46 -24 298
-83 328 -76 28 6 29 8 12 18 -10 6 -44 32 -75 58 -54 46 -81 59 -81 38 0 -17
-30 -11 -57 10 -17 13 -30 17 -37 11 -20 -16 -125 -25 -141 -11 -8 7 -15 9
-15 5 0 -4 -6 -2 -13 4 -8 6 -17 8 -20 5 -3 -3 -12 -2 -19 2 -14 10 -26 12
-110 20 -32 3 -58 3 -58 0z"/>
</g>
</svg>
