<?xml version="1.0" encoding="iso-8859-1"?>
<!-- Generator: Adobe Illustrator 18.0.0, SVG Export Plug-In . SVG Version: 6.00 Build 0)  -->
<!DOCTYPE svg PUBLIC "-//W3C//DTD SVG 1.1//EN" "http://www.w3.org/Graphics/SVG/1.1/DTD/svg11.dtd">
<svg version="1.1" id="Capa_1" xmlns="http://www.w3.org/2000/svg" xmlns:xlink="http://www.w3.org/1999/xlink" x="0px" y="0px"
	 viewBox="0 0 439.741 439.741" style="enable-background:new 0 0 439.741 439.741;" xml:space="preserve">
<path d="M416.075,289.776h-23.021c0,0,28.683-95.682,28.728-96.355l3.74-55.629c0.167-2.486-0.704-4.931-2.405-6.751
	c-1.702-1.82-4.082-2.853-6.574-2.853h-7.858c-3.852,0-7.275,2.45-8.519,6.096l-26.658,78.184c-4.791,0-8.76-0.001-12.033-0.003
	c0,0-13.484-57.088-13.626-57.46l-17.753-46.578c-1.33-3.489-4.677-5.795-8.41-5.795H308.74c-2.669,0-5.201,1.185-6.911,3.235
	c-1.71,2.049-2.422,4.752-1.943,7.378l15.88,87.14c-32.916-11.406-62.537-18.104-88.355-19.934
	c-12.643-0.896-24.406-0.626-35.25,0.775l-2.86-32.094l12.801-1.619c3.913-0.495,7.049-3.481,7.733-7.366l1.309-7.423
	c0.42-2.383-0.137-4.836-1.546-6.803c-1.409-1.968-3.552-3.285-5.943-3.654l-33.664-5.201c-2.469-0.381-4.982,0.279-6.942,1.824
	c-1.961,1.544-3.192,3.834-3.4,6.322l-1.41,16.895c0,0.006,0,0.012,0,0.019l-2.285,27.398l-19.254-32.509l10.325-7.237
	c2.712-1.901,4.161-5.139,3.771-8.428l-0.768-6.482c-0.313-2.642-1.778-5.01-4.004-6.469c-2.224-1.459-4.982-1.857-7.528-1.091
	l-32.618,9.822c-2.391,0.72-4.374,2.4-5.478,4.639c-1.103,2.239-1.228,4.836-0.343,7.17l31.725,81.355
	c-1.562,1.786-3.019,3.635-4.364,5.541c-1.915,2.713-3.377,5.222-4.489,7.381c-3.548-32.739-28.782-58.46-64.133-62.694
	c-2.503-0.302-5.008,0.461-6.92,2.096c-1.912,1.635-3.053,3.997-3.145,6.511l-1.579,43.218
	c-11.342,6.705-17.744,19.481-16.466,32.481L7.917,255.367c-3.247,1.503-5.296,4.788-5.217,8.366
	c0.079,3.578,2.271,6.769,5.581,8.128l14.45,5.931L3.733,291.505c-3.165,2.285-4.497,6.35-3.296,10.065
	c1.2,3.715,4.659,6.232,8.564,6.232l407.074-0.026c3.124,0,5.666,2.542,5.666,5.667c0,3.124-2.542,5.666-5.666,5.666H292.741
	c-4.971,0-9,4.029-9,9s4.029,9,9,9h123.334c13.05,0,23.666-10.617,23.666-23.666C439.741,300.393,429.125,289.776,416.075,289.776z"
	/>
<g>
</g>
<g>
</g>
<g>
</g>
<g>
</g>
<g>
</g>
<g>
</g>
<g>
</g>
<g>
</g>
<g>
</g>
<g>
</g>
<g>
</g>
<g>
</g>
<g>
</g>
<g>
</g>
<g>
</g>
</svg>
